<svg
  width="20"
  height="20"
  viewBox="0 0 20 20"
  fill="none"
  xmlns="http://www.w3.org/2000/svg"
>
  <path
    d="M16.7716 9.99984C16.7716 11.7956 16.0582 13.5178 14.7884 14.7875C13.5186 16.0573 11.7963 16.7707 10.0005 16.7707C8.20476 16.7707 6.48253 16.0573 5.21272 14.7875C3.94291 13.5178 3.22953 11.7956 3.22953 9.99984C3.22953 8.2041 3.94291 6.48191 5.21272 5.21214C6.48253 3.94236 8.20476 3.229 10.0005 3.229C11.7963 3.229 13.5186 3.94236 14.7884 5.21214C16.0582 6.48191 16.7716 8.2041 16.7716 9.99984ZM1.66699 9.99984C1.66699 12.21 2.54499 14.3296 4.10783 15.8924C5.67068 17.4552 7.79035 18.3332 10.0005 18.3332C12.2107 18.3332 14.3304 17.4552 15.8933 15.8924C17.4561 14.3296 18.3341 12.21 18.3341 9.99984C18.3341 7.7897 17.4561 5.67008 15.8933 4.10728C14.3304 2.54448 12.2107 1.6665 10.0005 1.6665C7.79035 1.6665 5.67068 2.54448 4.10783 4.10728C2.54499 5.67008 1.66699 7.7897 1.66699 9.99984ZM9.21928 5.57275V9.99984C9.21928 10.2603 9.34949 10.5044 9.56759 10.6509L12.6927 12.7342C13.0508 12.9751 13.5358 12.8774 13.7767 12.5161C14.0176 12.1548 13.9199 11.673 13.5586 11.4321L10.7818 9.58317V5.57275C10.7818 5.13981 10.4335 4.7915 10.0005 4.7915C9.56759 4.7915 9.21928 5.13981 9.21928 5.57275Z"
    fill="#495057"
  />
</svg>
