<svg width="24" height="25" viewBox="0 0 24 25" fill="none" xmlns="http://www.w3.org/2000/svg">
<g clip-path="url(#clip0_40000025_1233)">
<path d="M24 12.249C24 5.62166 18.6274 0.249023 12 0.249023C5.37264 0.249023 0 5.62166 0 12.249C0 17.8765 3.87456 22.5988 9.10128 23.8957V15.9162H6.62688V12.249H9.10128V10.6689C9.10128 6.58454 10.9498 4.69142 14.9597 4.69142C15.72 4.69142 17.0318 4.8407 17.5685 4.9895V8.3135C17.2853 8.28374 16.7933 8.26886 16.1822 8.26886C14.2147 8.26886 13.4544 9.0143 13.4544 10.9521V12.249H17.3741L16.7006 15.9162H13.4544V24.1612C19.3963 23.4436 24.0005 18.3844 24.0005 12.249H24Z" fill="#0866FF"/>
<path d="M16.6997 15.9162L17.3732 12.249H13.4535V10.952C13.4535 9.01429 14.2138 8.26885 16.1813 8.26885C16.7924 8.26885 17.2844 8.28373 17.5676 8.31349V4.98949C17.0309 4.84021 15.7191 4.69141 14.9588 4.69141C10.9489 4.69141 9.10038 6.58453 9.10038 10.6688V12.249H6.62598V15.9162H9.10038V23.8957C10.0287 24.1261 10.9997 24.249 11.9991 24.249C12.4911 24.249 12.9764 24.2188 13.453 24.1612V15.9162H16.6993H16.6997Z" fill="white"/>
</g>
<defs>
<clipPath id="clip0_40000025_1233">
<rect width="24" height="24" fill="white" transform="translate(0 0.249023)"/>
</clipPath>
</defs>
</svg>
