<svg width="24" height="25" viewBox="0 0 24 25" fill="none" xmlns="http://www.w3.org/2000/svg">
<g clip-path="url(#clip0_40000025_1238)">
<path d="M18.6748 24.2364L5.34851 24.249C2.41673 24.2517 0.0159938 21.8556 0.0126622 18.9238L2.22137e-06 5.59754C-0.00266304 2.66575 2.39341 0.265017 5.32519 0.261686L18.6515 0.249026C21.5833 0.24636 23.984 2.64243 23.9873 5.57421L24 18.9005C24.0033 21.833 21.6066 24.2337 18.6748 24.2364Z" fill="url(#paint0_radial_40000025_1238)"/>
<path d="M18.6748 24.2364L5.34851 24.249C2.41673 24.2517 0.0159938 21.8556 0.0126622 18.9238L2.22137e-06 5.59754C-0.00266304 2.66575 2.39341 0.265017 5.32519 0.261686L18.6515 0.249026C21.5833 0.24636 23.984 2.64243 23.9873 5.57421L24 18.9005C24.0033 21.833 21.6066 24.2337 18.6748 24.2364Z" fill="url(#paint1_radial_40000025_1238)"/>
<path d="M12.0003 16.9136C9.42902 16.9136 7.33613 14.8213 7.33613 12.2494C7.33613 9.67738 9.42902 7.58515 12.0003 7.58515C14.5716 7.58515 16.6645 9.67738 16.6645 12.2494C16.6645 14.8213 14.5716 16.9136 12.0003 16.9136ZM12.0003 8.91778C10.1633 8.91778 8.66876 10.4123 8.66876 12.2494C8.66876 14.0864 10.1633 15.5809 12.0003 15.5809C13.8374 15.5809 15.3319 14.0864 15.3319 12.2494C15.3319 10.4123 13.8374 8.91778 12.0003 8.91778Z" fill="white"/>
<path d="M16.9977 8.25147C17.5497 8.25147 17.9972 7.80399 17.9972 7.252C17.9972 6.7 17.5497 6.25252 16.9977 6.25252C16.4457 6.25252 15.9982 6.7 15.9982 7.252C15.9982 7.80399 16.4457 8.25147 16.9977 8.25147Z" fill="white"/>
<path d="M15.9982 20.9115H8.00244C5.43113 20.9115 3.33824 18.8192 3.33824 16.2472V8.25147C3.33824 5.67949 5.43113 3.58726 8.00244 3.58726H15.9982C18.5695 3.58726 20.6624 5.67949 20.6624 8.25147V16.2472C20.6624 18.8192 18.5695 20.9115 15.9982 20.9115ZM8.00244 4.91989C6.16541 4.91989 4.67087 6.41444 4.67087 8.25147V16.2472C4.67087 18.0843 6.16541 19.5788 8.00244 19.5788H15.9982C17.8353 19.5788 19.3298 18.0843 19.3298 16.2472V8.25147C19.3298 6.41444 17.8353 4.91989 15.9982 4.91989H8.00244Z" fill="white"/>
</g>
<defs>
<radialGradient id="paint0_radial_40000025_1238" cx="0" cy="0" r="1" gradientUnits="userSpaceOnUse" gradientTransform="translate(8.92196 24.2663) scale(29.9169 29.9169)">
<stop stop-color="#FFDD55"/>
<stop offset="0.328" stop-color="#FF543F"/>
<stop offset="0.348" stop-color="#FC5245"/>
<stop offset="0.504" stop-color="#E64771"/>
<stop offset="0.643" stop-color="#D53E91"/>
<stop offset="0.761" stop-color="#CC39A4"/>
<stop offset="0.841" stop-color="#C837AB"/>
</radialGradient>
<radialGradient id="paint1_radial_40000025_1238" cx="0" cy="0" r="1" gradientUnits="userSpaceOnUse" gradientTransform="translate(3.86196 -0.0506146) scale(19.8648 13.2359)">
<stop stop-color="#4168C9"/>
<stop offset="0.999" stop-color="#4168C9" stop-opacity="0"/>
</radialGradient>
<clipPath id="clip0_40000025_1238">
<rect width="24" height="24" fill="white" transform="translate(0 0.249023)"/>
</clipPath>
</defs>
</svg>
