<svg width="24" height="25" viewBox="0 0 24 25" fill="none" xmlns="http://www.w3.org/2000/svg">
<path d="M24 12.249C24 18.8764 18.6274 24.249 12 24.249C5.37263 24.249 0 18.8764 0 12.249C0 5.62165 5.37263 0.249023 12 0.249023C18.6274 0.249023 24 5.62165 24 12.249Z" fill="#4CC764"/>
<path d="M20.0029 11.5501C20.0029 7.96545 16.4092 5.049 11.9918 5.049C7.57486 5.049 3.98079 7.96545 3.98079 11.5501C3.98079 14.7638 6.83079 17.4551 10.6806 17.964C10.9415 18.0204 11.2966 18.136 11.3864 18.359C11.4671 18.5614 11.4392 18.8788 11.4123 19.0834C11.4123 19.0834 11.3183 19.6486 11.2979 19.7692C11.263 19.9716 11.1369 20.5612 11.9918 20.2011C12.8469 19.8408 16.6053 17.4844 18.286 15.55C19.4469 14.2768 20.0029 12.9847 20.0029 11.5501Z" fill="white"/>
<path d="M17.3378 13.62C17.4223 13.62 17.4907 13.5515 17.4907 13.467V12.8989C17.4907 12.8148 17.4219 12.746 17.3378 12.746H15.8082V12.156H17.3378C17.4223 12.156 17.4907 12.0874 17.4907 12.003V11.4348C17.4907 11.3508 17.4219 11.2819 17.3378 11.2819H15.8082V10.692H17.3378C17.4223 10.692 17.4907 10.6234 17.4907 10.539V9.97085C17.4907 9.88677 17.4219 9.81792 17.3378 9.81792H15.0871C15.0026 9.81792 14.9341 9.8864 14.9341 9.97085V13.467C14.9341 13.5515 15.0026 13.62 15.0871 13.62H17.3378Z" fill="#4CC764"/>
<path d="M9.01245 13.62C9.09698 13.62 9.16545 13.5515 9.16545 13.467V12.8989C9.16545 12.8148 9.0966 12.746 9.01245 12.746H7.48283V9.97085C7.48283 9.88677 7.41405 9.81792 7.3299 9.81792H6.76178C6.67725 9.81792 6.60885 9.8864 6.60885 9.97085V13.467C6.60885 13.5515 6.67725 13.62 6.76178 13.62H9.01245Z" fill="#4CC764"/>
<path d="M10.3674 9.81791H9.79924C9.71479 9.81791 9.64631 9.88638 9.64631 9.97083V13.467C9.64631 13.5515 9.71479 13.62 9.79924 13.62H10.3674C10.4519 13.62 10.5204 13.5515 10.5204 13.467V9.97083C10.5204 9.88638 10.4519 9.81791 10.3674 9.81791Z" fill="#4CC764"/>
<path d="M14.2351 9.81791H13.6669C13.5825 9.81791 13.514 9.88638 13.514 9.97083V12.0474L11.9144 9.88721C11.9107 9.88166 11.9065 9.87633 11.9021 9.87138C11.9018 9.87101 11.9014 9.87063 11.9011 9.87026C11.8981 9.86696 11.8951 9.86373 11.8919 9.86066C11.8909 9.85983 11.8899 9.85901 11.889 9.85811C11.8863 9.85571 11.8835 9.85338 11.8807 9.85106C11.8793 9.85008 11.878 9.84903 11.8765 9.84798C11.874 9.84611 11.8712 9.84423 11.8684 9.84243C11.8669 9.84138 11.8654 9.84056 11.8638 9.83958C11.861 9.83801 11.8582 9.83636 11.8554 9.83501C11.8537 9.83411 11.8522 9.83336 11.8504 9.83253C11.8475 9.83126 11.8446 9.82991 11.8415 9.82878C11.8399 9.82811 11.8382 9.82751 11.8366 9.82691C11.8335 9.82578 11.8304 9.82488 11.8273 9.82391C11.8255 9.82338 11.8237 9.82293 11.8219 9.82256C11.8188 9.82181 11.8158 9.82113 11.8127 9.82053C11.8106 9.82016 11.8084 9.81986 11.8063 9.81956C11.8035 9.81918 11.8008 9.81881 11.798 9.81858C11.7953 9.81836 11.7926 9.81821 11.7898 9.81813C11.7881 9.81813 11.7864 9.81791 11.7846 9.81791H11.2196C11.1351 9.81791 11.0666 9.88638 11.0666 9.97083V13.467C11.0666 13.5515 11.1351 13.62 11.2196 13.62H11.7877C11.8722 13.62 11.9407 13.5515 11.9407 13.467V11.3912L13.5423 13.554C13.5533 13.5696 13.5668 13.5825 13.5817 13.5926C13.5823 13.593 13.5829 13.5935 13.5835 13.5939C13.5866 13.5959 13.5898 13.5978 13.5931 13.5997C13.5946 13.6005 13.596 13.6013 13.5976 13.6021C13.6 13.6034 13.6024 13.6046 13.605 13.6057C13.6075 13.6068 13.6099 13.6079 13.6125 13.6089C13.6141 13.6096 13.6157 13.6101 13.6174 13.6107C13.6208 13.6119 13.6243 13.6131 13.6279 13.614C13.6286 13.6143 13.6294 13.6145 13.6301 13.6146C13.6429 13.618 13.6562 13.62 13.6701 13.62H14.2351C14.3195 13.62 14.388 13.5515 14.388 13.467V9.97083C14.388 9.88638 14.3195 9.81791 14.2351 9.81791Z" fill="#4CC764"/>
</svg>
