<svg width="20" height="20" viewBox="0 0 20 20" fill="none" xmlns="http://www.w3.org/2000/svg">
<path d="M12.2105 6.66683C12.2105 6.1143 11.9875 5.58439 11.5906 5.19369C11.1937 4.80299 10.6554 4.5835 10.0941 4.5835C9.53273 4.5835 8.9944 4.80299 8.59749 5.19369C8.20058 5.58439 7.97759 6.1143 7.97759 6.66683C7.97759 7.21936 8.20058 7.74927 8.59749 8.13997C8.9944 8.53067 9.53273 8.75016 10.0941 8.75016C10.6554 8.75016 11.1937 8.53067 11.5906 8.13997C11.9875 7.74927 12.2105 7.21936 12.2105 6.66683ZM6.70772 6.66683C6.70772 5.78277 7.06449 4.93493 7.69955 4.30981C8.33461 3.68469 9.19594 3.3335 10.0941 3.3335C10.9922 3.3335 11.8535 3.68469 12.4886 4.30981C13.1236 4.93493 13.4804 5.78277 13.4804 6.66683C13.4804 7.55088 13.1236 8.39873 12.4886 9.02385C11.8535 9.64897 10.9922 10.0002 10.0941 10.0002C9.19594 10.0002 8.33461 9.64897 7.69955 9.02385C7.06449 8.39873 6.70772 7.55088 6.70772 6.66683ZM5.47224 15.4168H14.7185C14.4831 13.7684 13.0439 12.5002 11.3057 12.5002H8.88767C7.14953 12.5002 5.71034 13.7684 5.47488 15.4168H5.47224ZM4.16797 15.8934C4.16797 13.3283 6.27914 11.2502 8.88503 11.2502H11.3031C13.909 11.2502 16.0201 13.3283 16.0201 15.8934C16.0201 16.3205 15.6683 16.6668 15.2344 16.6668H4.9537C4.51983 16.6668 4.16797 16.3205 4.16797 15.8934Z" fill="#495057"/>
</svg>
