<svg width="20" height="20" viewBox="0 0 20 20" fill="none" xmlns="http://www.w3.org/2000/svg">
<path d="M7.8648 5.6055C8.81503 4.09083 9.28977 3.3335 10 3.3335C10.7102 3.3335 11.185 4.09083 12.1352 5.6055L12.3812 5.9975C12.6512 6.42817 12.7862 6.64351 12.9962 6.78551C13.2062 6.92751 13.4687 6.98017 13.9937 7.08551L14.4706 7.18151C16.3156 7.55284 17.2373 7.73818 17.4571 8.36551C17.6761 8.99218 17.0476 9.64618 15.7899 10.9535L15.4644 11.2915C15.1074 11.6629 14.9281 11.8489 14.8479 12.0782C14.7676 12.3082 14.7946 12.5562 14.8486 13.0515L14.8981 13.5029C15.0879 15.2475 15.1831 16.1195 14.6086 16.5069C14.0342 16.8949 13.1702 16.5409 11.4437 15.8342L10.996 15.6515C10.5055 15.4502 10.2602 15.3502 10 15.3502C9.73976 15.3502 9.49451 15.4502 9.00402 15.6515L8.55703 15.8342C6.82982 16.5409 5.96584 16.8942 5.39211 16.5075C4.81687 16.1195 4.91212 15.2475 5.10187 13.5029L5.15136 13.0522C5.20536 12.5562 5.23236 12.3082 5.15136 12.0789C5.07187 11.8489 4.89262 11.6629 4.53563 11.2922L4.21014 10.9535C2.95242 9.64685 2.32393 8.99285 2.54293 8.36551C2.76267 7.73818 3.68515 7.55218 5.53011 7.18151L6.00709 7.08551C6.53133 6.98017 6.79308 6.92751 7.00382 6.78551C7.21382 6.64351 7.34881 6.42817 7.61881 5.9975L7.8648 5.6055Z" fill="#FFC107"/>
</svg>
